<svg width="202" height="30" viewBox="0 0 202 30" fill="none" xmlns="http://www.w3.org/2000/svg">
<path d="M89 14.75C89 14.75 66.875 29.5 44.75 29.5C22.625 29.5 0.5 14.75 0.5 14.75C0.5 14.75 22.625 0 44.75 0C66.875 0 89 14.75 89 14.75Z" fill="white"/>
<circle cx="44.75" cy="14.75" r="11.0625" fill="black"/>
<path d="M201.5 14.75C201.5 14.75 179.375 29.5 157.25 29.5C135.125 29.5 113 14.75 113 14.75C113 14.75 135.125 0 157.25 0C179.375 0 201.5 14.75 201.5 14.75Z" fill="white"/>
<circle cx="157.25" cy="14.75" r="11.0625" fill="black"/>
</svg>
