<svg xmlns="http://www.w3.org/2000/svg" width="366" height="288" fill="none" viewBox="0 0 366 288"><path fill="#000" fill-rule="evenodd" d="M72.095 56.506V42H3.26l-.257 8.735L12 51c-8.996-.265-8.996-.264-8.997-.262l-.001.066-.005.167-.014.617c-.01.535-.024 1.312-.034 2.307-.02 1.99-.027 4.856.02 8.405.097 7.09.417 16.943 1.313 28.005 1.767 21.796 5.856 49.525 15.634 69.837 6.675 13.867 18.153 28.674 28.364 40.452l-3.583 3.471c-8.415 8.153-8.531 21.614-.258 29.91l.854.858c8.206 8.229 21.536 8.229 29.742 0l6.237-6.256 25.388 3.823 2.68-17.8-27.04-4.071c-.95-.931-2.206-2.176-3.7-3.688a389.3 389.3 0 0 1-13.708-14.61c-10.729-12.054-22.533-26.965-28.758-39.897-8.247-17.132-12.17-42.021-13.91-63.484A404.252 404.252 0 0 1 20.946 60h24.427l54.535 37.42 10.184-14.84-37.997-26.074Zm-6.739 162.54-3.068 3.077a3 3 0 0 1-4.248 0l-.855-.857a3 3 0 0 1 .037-4.273l3.173-3.074a406.083 406.083 0 0 0 4.961 5.127ZM293.905 56.506V42h68.834l.257 8.735L354 51c8.996-.265 8.996-.264 8.997-.262l.001.066.005.167.014.617c.01.535.024 1.312.034 2.307.02 1.99.027 4.856-.021 8.405a422.45 422.45 0 0 1-1.312 28.005c-1.767 21.796-5.856 49.525-15.634 69.837-6.675 13.867-18.153 28.674-28.364 40.452l3.583 3.471c8.415 8.153 8.531 21.614.258 29.91l-.854.858c-8.206 8.229-21.536 8.229-29.742 0l-6.237-6.256-25.388 3.823-2.68-17.8 27.039-4.071a334.4 334.4 0 0 0 3.701-3.688 389.671 389.671 0 0 0 13.708-14.61c10.729-12.054 22.533-26.965 28.758-39.897 8.247-17.132 12.171-42.021 13.91-63.484A403.81 403.81 0 0 0 345.054 60h-24.427l-54.534 37.42-10.185-14.84 37.997-26.074Zm6.739 162.54 3.068 3.077a2.998 2.998 0 0 0 4.248 0l.855-.857a3 3 0 0 0-.037-4.273l-3.173-3.074a402.278 402.278 0 0 1-4.961 5.127Z" clip-rule="evenodd"/><path fill="#414141" fill-rule="evenodd" d="M3 42h69v15h15v18h-6V63H66V48H3v-6Z" clip-rule="evenodd"/><path fill="#000" d="M96 270v-12s-33-39-33-99S87 39 87 39V27h96v243H96ZM276 0h-96v21h87l9-9V0Z"/><path fill="#000" d="M276 288h-96v-21h87l9 9v12Z"/><path fill="#000" d="M270 270v-12s33-39 33-99-24-120-24-120V27h-96v243h87ZM90 0h96v21H99l-9-9V0Z"/><path fill="#000" d="M90 288h96v-21H99l-9 9v12Z"/><path fill="#414141" fill-rule="evenodd" d="M126 144c0 31.48 25.52 57 57 57s57-25.52 57-57-25.52-57-57-57-57 25.52-57 57Zm-6 0c0 34.794 28.206 63 63 63s63-28.206 63-63-28.206-63-63-63-63 28.206-63 63Z" clip-rule="evenodd" opacity=".1"/><path fill="#414141" fill-rule="evenodd" d="M147.323 172.215c11.434 2.565 26.604 2.169 42.665-2.135s29.397-11.545 38.017-19.484c8.855-8.156 11.544-15.783 10.053-21.349-1.491-5.565-7.634-10.826-19.381-13.462-11.434-2.565-26.604-2.169-42.665 2.135s-29.397 11.545-38.016 19.484c-8.855 8.156-11.545 15.783-10.054 21.349 1.492 5.565 7.635 10.826 19.381 13.462Zm-25.176-11.909c4.717 17.604 35.786 24.575 69.394 15.57 33.609-9.006 57.03-30.577 52.313-48.182-4.718-17.604-35.786-24.575-69.395-15.57-33.608 9.006-57.029 30.577-52.312 48.182Z" clip-rule="evenodd" opacity=".1"/><path fill="#fff" d="M219 144s-18 12-36 12-36-12-36-12 18-12 36-12 36 12 36 12Z"/><path fill="#000" d="M192 144a9 9 0 0 1-9 9 9 9 0 0 1-9-9 9 9 0 0 1 9-9 9 9 0 0 1 9 9Z"/><path fill="#414141" fill-rule="evenodd" d="M93 21h71.162l6 18H186v58.78l53.693 55.106L281.992 96h7.508V79.5h6V102h-10.492l-44.701 60.114L180 100.22V45h-14.162l-6-18H93v-6Zm180 6H171v-6h102v6Z" clip-rule="evenodd"/><path fill="#414141" fill-rule="evenodd" d="M96 270h81v-12h9v-70.486L121.013 138H63v6h36v57.75l24 45V258h6v-12.75l-24-45V144h13.987L180 190.486V252h-9v12H96v6Zm171-6h-84v6h90v-11.151l11.555-18.777-5.11-3.144L267 257.151V264Zm-45-1.881V264h-6v-4.119l21.13-24.381H252V264h-6v-22.5h-6.13L222 262.119ZM117 57h24V24h-6v27h-12v-7.699l-15-9V25.5h-6v12.199l15 9V57Z" clip-rule="evenodd"/><path fill="#000" d="m123 140.8 36 51.2h66l12-32-12-64h-30l-66 19.2-6 25.6Z"/><path fill="#414141" fill-rule="evenodd" d="m155.883 198-39.34-55.95 7.414-31.632L194.144 90h35.834l13.226 70.539L229.157 198h-73.274Zm3.116-6-36-51.2 6-25.6 66-19.2h30l12 64-12 32h-66Z" clip-rule="evenodd"/><path fill="#fff" d="M219 144s-18 12-36 12-36-12-36-12 18-12 36-12 36 12 36 12Z"/><path fill="#000" d="M192 144a9 9 0 0 1-9 9 9 9 0 0 1-9-9 9 9 0 0 1 9-9 9 9 0 0 1 9 9Z"/><path fill="#D9D9D9" d="M219 0h45v12l-9 9h9v90h-45V21h-9l9-9V0Z"/><path fill="#C64545" d="M258 64.5c0 9.113-7.387 16.5-16.5 16.5S225 73.613 225 64.5 232.387 48 241.5 48 258 55.387 258 64.5Z"/><path fill="#000" d="M225 30h24v3h-24v-3Z"/><path fill="#000" d="M231 30v12h-3V30h3ZM231 0v12h-3V0h3ZM237 36v12h-3V36h3ZM231 48v12h-3V48h3Z"/><path fill="#000" d="M240 57h-12v-3h12v3ZM240 72h-12v-3h12v3ZM240 78h-12v-3h12v3ZM249 102h-21v-3h21v3Z"/><path fill="#000" d="M228 81V69h3v12h-3ZM228 99V87h3v12h-3ZM237 99V87h3v12h-3Z"/><path fill="#000" d="M234 93h-6v-3h6v3ZM240 63h-6v-3h6v3ZM249 57h-3v-3h3v3ZM249 78h-3v-3h3v3ZM249 24h-3v-3h3v3ZM240 24h-6v-3h6v3ZM231 24h-6v-3h6v3ZM249 3h-24V0h24v3Z"/><path fill="#D9D9D9" d="M180 198h6v6h-6v-6Z"/><path fill="#D9D9D9" d="M75 138h24v6H75v-6Z" opacity=".4"/><path fill="#595959" d="M0 42h12v6H0v-6Z"/><path fill="#000" d="M354 42h12v6h-12v-6Z"/><path fill="#D9D9D9" d="M102 21h30v6h-30v-6Z" opacity=".4"/><path fill="#D9D9D9" d="M102 264h27v6h-27v-6Z" opacity=".3"/></svg>