<svg xmlns="http://www.w3.org/2000/svg" width="112" height="33" fill="none" viewBox="0 0 112 33"><path fill="#000" d="M48.75 3.364h3.114l-1.319 7.977a4.228 4.228 0 0 1-.897 2 4.818 4.818 0 0 1-1.779 1.34c-.716.319-1.505.478-2.369.478-.742 0-1.401-.129-1.977-.386a2.572 2.572 0 0 1-1.273-1.227c-.273-.561-.333-1.288-.182-2.182h3.16c-.039.295-.031.543.022.744a.775.775 0 0 0 .295.449c.144.098.334.147.569.147.235 0 .44-.05.619-.153.178-.106.326-.26.443-.46.118-.205.203-.455.256-.75l1.318-7.977Zm5.133 11.772c-.553 0-1.028-.09-1.426-.272a1.76 1.76 0 0 1-.863-.841c-.178-.38-.218-.856-.12-1.432.08-.477.23-.885.45-1.222.219-.337.492-.613.818-.83a3.85 3.85 0 0 1 1.096-.493c.41-.118.841-.194 1.295-.228.493-.038.893-.085 1.2-.142.306-.057.535-.134.687-.233a.585.585 0 0 0 .273-.398v-.022c.034-.228-.027-.402-.182-.523-.152-.121-.364-.182-.637-.182a1.47 1.47 0 0 0-.767.193c-.212.13-.358.33-.437.603h-2.887a3.46 3.46 0 0 1 .745-1.466c.379-.451.88-.81 1.505-1.08.63-.273 1.38-.409 2.25-.409.622 0 1.167.074 1.637.222.47.144.858.346 1.165.608.31.257.528.56.653.909.129.344.16.72.091 1.125l-1 5.977h-2.932l.205-1.227h-.069a3.18 3.18 0 0 1-.767.79c-.28.2-.587.346-.92.437-.33.09-.684.136-1.063.136Zm1.364-1.977a1.73 1.73 0 0 0 1.279-.574c.162-.185.267-.41.312-.676l.114-.727a2.945 2.945 0 0 1-.279.096c-.098.027-.202.053-.312.08-.106.026-.22.051-.341.074l-.364.068c-.25.038-.46.1-.63.188-.17.083-.304.187-.398.312a.861.861 0 0 0-.176.41c-.034.238.02.423.165.556.147.129.357.193.63.193ZM60.927 15l1.455-8.727h3.046l-.273 1.659h.09c.262-.614.59-1.063.984-1.347a2.158 2.158 0 0 1 1.681-.392c.13.02.256.046.381.08l-.454 2.682a2.176 2.176 0 0 0-.552-.12 4.945 4.945 0 0 0-.585-.04c-.303 0-.587.07-.852.21-.261.137-.485.33-.67.58a2.06 2.06 0 0 0-.364.87L64.064 15h-3.136Zm14.307.16c-.947 0-1.727-.188-2.34-.563a3.036 3.036 0 0 1-1.285-1.58c-.246-.678-.295-1.464-.147-2.358.147-.894.456-1.678.926-2.352a4.831 4.831 0 0 1 1.812-1.58c.739-.379 1.584-.568 2.534-.568.944 0 1.72.19 2.33.568a3 3 0 0 1 1.29 1.58c.25.674.3 1.458.153 2.352-.148.894-.458 1.68-.932 2.358a4.946 4.946 0 0 1-1.818 1.58c-.735.375-1.576.562-2.523.562Zm.387-2.32c.273 0 .52-.088.744-.266.227-.178.42-.432.58-.761.163-.33.282-.722.358-1.177.075-.458.087-.85.034-1.176-.053-.33-.163-.583-.33-.761a.86.86 0 0 0-.659-.267c-.273 0-.523.089-.75.267-.227.178-.42.432-.58.761-.159.326-.276.718-.352 1.176-.076.455-.089.847-.04 1.177.053.329.163.583.33.76.17.179.392.268.665.268Zm12.125-6.567-.387 2.272h-5.84l.386-2.272h5.84ZM81.553 15l1.5-8.977c.117-.72.342-1.317.676-1.79.337-.474.76-.828 1.267-1.063a4.065 4.065 0 0 1 1.716-.352c.401 0 .786.03 1.153.091.368.06.635.114.801.16l-.818 2.25a2.306 2.306 0 0 0-.38-.08 2.533 2.533 0 0 0-.393-.034c-.291 0-.5.062-.625.187a.935.935 0 0 0-.238.494L84.689 15h-3.136Zm-16.888 5.273-.387 2.273h-5.75l.387-2.273h5.75Zm-4.296-2.091h3.137l-1.33 8.011a.675.675 0 0 0 .011.307c.027.08.08.14.16.182a.804.804 0 0 0 .33.057c.09 0 .202-.012.334-.035.133-.026.233-.045.301-.056l.091 2.204c-.159.046-.373.097-.642.154-.265.06-.574.1-.926.119-.735.034-1.333-.044-1.795-.233-.459-.19-.777-.485-.955-.886-.174-.406-.204-.911-.09-1.517l1.374-8.307Zm8.286 5.909L67.837 29H64.7l1.932-11.636h3.023l-.75 4.568h.09c.285-.557.683-.99 1.194-1.301a3.252 3.252 0 0 1 1.739-.472c.613 0 1.125.14 1.534.42.409.28.698.667.869 1.16.17.492.203 1.056.097 1.693L73.496 29h-3.137l.819-4.91c.068-.43.013-.77-.165-1.016-.175-.246-.46-.37-.858-.37-.258 0-.493.057-.705.171-.208.11-.382.269-.522.477-.137.205-.228.451-.273.739ZM75.02 29l1.455-8.727h3.136L78.158 29H75.02Zm3.16-9.636c-.425 0-.768-.14-1.029-.42a1.131 1.131 0 0 1-.29-1.012c.068-.398.277-.735.625-1.011.349-.28.735-.421 1.16-.421.427 0 .768.14 1.022.42.254.277.349.614.284 1.012-.06.39-.265.727-.614 1.011a1.79 1.79 0 0 1-1.159.42Zm5.552 4.727L82.915 29h-3.137l1.455-8.727h2.977l-.272 1.659h.09c.277-.557.68-.99 1.21-1.301a3.42 3.42 0 0 1 1.768-.472c.617 0 1.13.14 1.54.42.408.28.698.667.869 1.16.17.492.2 1.056.09 1.693L88.575 29h-3.136l.818-4.91c.072-.43.019-.77-.16-1.016-.174-.246-.462-.37-.863-.37-.254 0-.487.057-.699.171-.208.11-.383.269-.523.477-.136.205-.229.451-.278.739Zm10.025 8.364c-.878 0-1.61-.125-2.193-.375-.58-.247-1.007-.588-1.284-1.023-.273-.432-.386-.928-.34-1.489h3.022c.008.19.063.341.165.455a.858.858 0 0 0 .426.244c.182.05.394.074.636.074.41 0 .764-.1 1.063-.301.3-.197.483-.551.551-1.063l.25-1.477h-.09c-.16.296-.374.547-.643.756a3.011 3.011 0 0 1-.926.471c-.349.106-.72.16-1.114.16-.621 0-1.168-.145-1.642-.433-.47-.287-.81-.744-1.022-1.369-.209-.625-.23-1.441-.063-2.449.174-1.053.481-1.909.92-2.568.44-.659.945-1.142 1.517-1.449.572-.306 1.146-.46 1.722-.46.432 0 .797.076 1.097.227.299.148.537.347.716.597.178.246.3.517.369.813h.068l.25-1.523h3.136l-1.454 8.704c-.114.743-.403 1.372-.87 1.887-.462.519-1.06.912-1.795 1.181-.73.273-1.555.41-2.472.41Zm1.046-5.796c.288 0 .55-.08.784-.238.235-.163.434-.395.597-.694.162-.303.278-.666.346-1.09.068-.433.072-.802.012-1.109-.061-.31-.18-.547-.358-.71-.178-.167-.411-.25-.7-.25-.287 0-.547.083-.778.25a1.91 1.91 0 0 0-.585.71c-.159.307-.273.677-.34 1.108-.069.432-.075.8-.018 1.103.057.299.173.528.347.687.174.155.405.233.693.233Zm14.618-3.545h-2.818a.745.745 0 0 0-.097-.466.768.768 0 0 0-.335-.296 1.075 1.075 0 0 0-.477-.102c-.311 0-.593.07-.847.21-.254.137-.396.316-.426.54-.019.087.009.169.085.244.076.076.275.146.597.21l1.727.319c.864.159 1.492.449 1.886.869.398.417.542.968.432 1.654a2.816 2.816 0 0 1-.784 1.534c-.42.428-.954.757-1.602.988-.644.227-1.356.341-2.137.341-1.375 0-2.405-.274-3.09-.824-.682-.549-.993-1.267-.932-2.153h3.045c.008.284.102.498.284.642.186.14.432.214.739.221a1.61 1.61 0 0 0 .875-.198c.25-.148.39-.332.42-.552.012-.125-.043-.22-.164-.284-.118-.064-.343-.128-.677-.193l-1.5-.273c-.863-.155-1.492-.466-1.886-.931-.394-.47-.53-1.069-.409-1.796.098-.58.333-1.066.705-1.46.375-.394.867-.691 1.477-.892.61-.205 1.314-.307 2.113-.307 1.307 0 2.296.263 2.966.79.675.523.951 1.244.83 2.165ZM0 14.933 12 32h22l4-10.667L34 0H24L2 6.4l-2 8.533Z"/><path fill="#fff" d="M30 16s-5 4-10 4-10-4-10-4 5-4 10-4 10 4 10 4Z"/><circle cx="20" cy="16" r="3" fill="#000"/></svg>