<svg width="1190" height="24" viewBox="0 0 1190 24" fill="none" xmlns="http://www.w3.org/2000/svg">
<path d="M0 24L29.75 0L59.5 24L89.25 0L119 24L148.75 0L178.5 24L208.25 0L238 24L267.75 0L297.5 24L327.25 0L357 24L387.99 0L416.5 24L446.25 0L476 24L505.75 0L535.5 24L565.25 0L595 24L624.75 0L654.5 24L684.25 0L714 24L743.75 0L773.5 24L803.25 0L833 24L862.75 0L892.5 24L922.25 0L952 24L981.75 0L1011.5 24L1041.25 0L1071 24L1100.75 0L1130.5 24L1160.25 0L1190 24H1130.5H1071H1011.5H952H892.5H833H773.5H714H654.5H595H535.5H476H416.5H357H297.5H238H178.5H119H59.5H0Z" fill="black"/>
</svg>
